<svg width="67" height="26" viewBox="0 0 67 26" fill="none" xmlns="http://www.w3.org/2000/svg">
<path d="M36.6254 19.5806H37.0402C37.0402 19.4652 36.9956 19.3786 36.9063 19.3209C36.8171 19.2632 36.6884 19.2344 36.5177 19.2344H36.5072C36.3471 19.2344 36.1764 19.2711 35.9979 19.3472L35.8955 19.0324C36.0819 18.9511 36.2867 18.9118 36.5099 18.9092H36.5177C36.8144 18.9092 37.0428 18.9669 37.2004 19.0796C37.3605 19.195 37.4393 19.376 37.4393 19.6252V20.7188H37.0586V20.5247C36.9825 20.6008 36.8906 20.6585 36.7803 20.7004C36.67 20.7424 36.5598 20.7634 36.4469 20.7634C36.2342 20.7634 36.0635 20.7083 35.9323 20.5955C35.801 20.4827 35.7354 20.3464 35.7354 20.1838C35.7354 20.0028 35.8167 19.8533 35.9795 19.7353C36.1292 19.633 36.3445 19.5806 36.6228 19.5806M36.5151 20.446C36.6175 20.446 36.7225 20.4198 36.8223 20.37C36.9247 20.3201 36.9956 20.2598 37.0402 20.1943V19.8953H36.6832C36.481 19.8953 36.3392 19.9215 36.2578 19.974C36.1817 20.0317 36.1423 20.1025 36.1423 20.1864C36.1423 20.2624 36.1764 20.3228 36.2421 20.3726C36.3077 20.4224 36.3996 20.446 36.5125 20.446" fill="#595757"/>
<path d="M38.4212 18.3845V18.9536H38.8072V19.2788H38.4212V20.1783C38.4212 20.2622 38.4422 20.3199 38.4842 20.3514C38.5262 20.3829 38.584 20.3986 38.6601 20.3986H38.8072V20.7186H38.563C38.3713 20.7186 38.2348 20.6766 38.1455 20.5927C38.0589 20.5088 38.0143 20.3829 38.0143 20.215V19.2761H37.7097V18.9509H38.0143V18.3818H38.4212V18.3845Z" fill="#595757"/>
<path d="M39.6081 18.4553C39.6081 18.5234 39.5818 18.5838 39.532 18.6336C39.4821 18.686 39.4217 18.7096 39.3508 18.7096C39.2799 18.7096 39.2195 18.6834 39.1696 18.6336C39.1198 18.5838 39.0935 18.5234 39.0935 18.4553C39.0935 18.3871 39.1198 18.3241 39.1696 18.2743C39.2195 18.2245 39.2799 18.1982 39.3508 18.1982C39.4217 18.1982 39.4821 18.2245 39.532 18.2743C39.5818 18.3241 39.6081 18.3844 39.6081 18.4553ZM39.1513 18.9536H39.5556V20.7212H39.1513V18.9536Z" fill="#595757"/>
<path d="M40.8578 20.7632C40.5978 20.7632 40.3773 20.674 40.1961 20.4983C40.0124 20.32 39.9231 20.1023 39.9231 19.84C39.9231 19.5778 40.015 19.3601 40.1961 19.1791C40.3773 19.0008 40.5978 18.9116 40.8578 18.9116C41.1177 18.9116 41.3409 19.0008 41.522 19.1791C41.7032 19.3575 41.7951 19.5778 41.7951 19.84C41.7951 20.1023 41.7032 20.32 41.522 20.4983C41.3409 20.6766 41.1203 20.7632 40.8578 20.7632ZM40.8578 20.4327C41.0048 20.4327 41.1282 20.3777 41.2332 20.2649C41.3382 20.1547 41.3907 20.0105 41.3907 19.84C41.3907 19.6696 41.3382 19.5279 41.2332 19.4152C41.1282 19.2998 41.0022 19.2447 40.8578 19.2447C40.7134 19.2447 40.59 19.3024 40.485 19.4152C40.3799 19.5306 40.3274 19.6722 40.3274 19.84C40.3274 20.0079 40.3799 20.1547 40.485 20.2649C40.59 20.375 40.7134 20.4327 40.8578 20.4327Z" fill="#595757"/>
<path d="M42.538 19.8323V20.7214H42.1389V18.9538H42.5249V19.1898C42.5721 19.1085 42.6404 19.0403 42.7296 18.9879C42.8189 18.9354 42.9161 18.9092 43.0185 18.9092C43.2285 18.9092 43.3965 18.98 43.5225 19.1242C43.6486 19.2659 43.7116 19.4573 43.7116 19.6933V20.7214H43.3099V19.7956C43.3099 19.6068 43.2784 19.4678 43.218 19.3786C43.1576 19.2868 43.0631 19.2422 42.9344 19.2422C42.8688 19.2422 42.8032 19.2632 42.7428 19.3078C42.6798 19.3524 42.6325 19.4101 42.601 19.4862C42.5616 19.5727 42.5406 19.6881 42.5406 19.8323" fill="#595757"/>
<path d="M44.9378 19.5806H45.3552C45.3552 19.4652 45.3106 19.3786 45.2213 19.3209C45.1321 19.2632 45.0034 19.2344 44.8327 19.2344H44.8222C44.6621 19.2344 44.4914 19.2711 44.3129 19.3472L44.2105 19.0324C44.3969 18.9511 44.6017 18.9118 44.8249 18.9092H44.8327C45.1294 18.9092 45.3578 18.9669 45.518 19.0796C45.6755 19.195 45.7569 19.376 45.7569 19.6252V20.7188H45.3762V20.5247C45.3001 20.6008 45.2082 20.6585 45.0979 20.7004C44.9876 20.7424 44.8774 20.7634 44.7645 20.7634C44.5518 20.7634 44.3812 20.7083 44.2499 20.5955C44.1186 20.4827 44.053 20.3464 44.053 20.1838C44.053 20.0028 44.1344 19.8533 44.2971 19.7353C44.4468 19.633 44.6621 19.5806 44.9404 19.5806M44.8301 20.446C44.9351 20.446 45.0375 20.4198 45.1373 20.37C45.2371 20.3201 45.3106 20.2598 45.3552 20.1943V19.8953H44.9981C44.796 19.8953 44.6542 19.9215 44.5754 19.974C44.4967 20.0317 44.4599 20.1025 44.4599 20.1864C44.4599 20.2624 44.4941 20.3228 44.5597 20.3726C44.6253 20.4224 44.7146 20.446 44.8301 20.446Z" fill="#595757"/>
<path d="M46.6208 18.2612H46.2217V20.7212H46.6208V18.2612Z" fill="#595757"/>
<path d="M49.0703 18.6074V20.7212H48.6554V18.6074H47.9045V18.2612H49.8211V18.6074H49.0703Z" fill="#595757"/>
<path d="M50.5957 19.5806H51.0131C51.0131 19.4652 50.9685 19.3786 50.8792 19.3209C50.79 19.2632 50.6613 19.2344 50.4906 19.2344H50.4801C50.32 19.2344 50.152 19.2711 49.9708 19.3472L49.8684 19.0324C50.0548 18.9511 50.2596 18.9118 50.4828 18.9092H50.4906C50.7873 18.9092 51.0157 18.9669 51.1733 19.0796C51.3334 19.195 51.4122 19.376 51.4122 19.6252V20.7188H51.0315V20.5247C50.9554 20.6008 50.8635 20.6585 50.7532 20.7004C50.6429 20.7424 50.5327 20.7634 50.4198 20.7634C50.2071 20.7634 50.0364 20.7083 49.9052 20.5955C49.7739 20.4827 49.7083 20.3464 49.7083 20.1838C49.7083 20.0028 49.7896 19.8533 49.9524 19.7353C50.1021 19.633 50.3174 19.5806 50.5957 19.5806ZM50.4854 20.446C50.5904 20.446 50.6902 20.4198 50.7926 20.37C50.895 20.3201 50.9659 20.2598 51.0105 20.1943V19.8953H50.6534C50.4513 19.8953 50.3095 19.9215 50.2281 19.974C50.152 20.0317 50.1126 20.1025 50.1126 20.1864C50.1126 20.2624 50.1467 20.3228 50.2123 20.3726C50.278 20.4224 50.3699 20.446 50.4854 20.446Z" fill="#595757"/>
<path d="M52.0844 20.7212H51.6328L52.3181 19.7955L51.6932 18.9536H52.1448L52.5439 19.4886L52.9403 18.9536H53.3919L52.7696 19.7955L53.4523 20.7212H53.0007L52.5439 20.1023L52.0844 20.7212Z" fill="#595757"/>
<path d="M54.5076 20.2227L54.7806 19.9474C54.8541 20.1021 54.946 20.2175 55.0563 20.2909C55.1771 20.3722 55.2978 20.4116 55.4186 20.4116C55.5473 20.4116 55.6575 20.3775 55.7494 20.3093C55.8413 20.2437 55.8886 20.1572 55.8886 20.047C55.8886 19.95 55.8413 19.8713 55.7494 19.8136C55.6575 19.7533 55.5551 19.7035 55.4475 19.6589C55.3372 19.6195 55.227 19.5749 55.1088 19.5277C54.9198 19.4596 54.7859 19.3704 54.7045 19.2602C54.6231 19.1501 54.5811 19.0321 54.5811 18.9114C54.5811 18.7226 54.6625 18.5574 54.8253 18.4236C54.988 18.2899 55.1876 18.2217 55.4212 18.2217C55.668 18.2217 55.8702 18.2846 56.0251 18.4105C56.1039 18.4735 56.1616 18.5416 56.1905 18.6151L55.9437 18.8773C55.9227 18.8354 55.8833 18.7882 55.8282 18.7331C55.7074 18.6229 55.5656 18.5705 55.4002 18.5705C55.2978 18.5705 55.2059 18.5993 55.1272 18.657C55.0484 18.7147 55.009 18.7908 55.009 18.8878C55.009 19.0347 55.1692 19.1632 55.4895 19.276C55.5473 19.2943 55.6103 19.3153 55.6733 19.3389C55.8886 19.4202 56.0487 19.5199 56.1564 19.63C56.264 19.7402 56.3165 19.8792 56.3165 20.0444C56.3165 20.2385 56.2325 20.4063 56.0671 20.5479C55.9017 20.6922 55.689 20.763 55.4265 20.763C55.1876 20.763 54.988 20.7079 54.8305 20.6004C54.6782 20.4955 54.5706 20.3696 54.5102 20.2227" fill="#595757"/>
<path d="M56.9809 20.0157C57.0045 20.1233 57.0544 20.2124 57.1332 20.2806C57.246 20.3829 57.3957 20.4354 57.5821 20.4354C57.779 20.4354 57.9602 20.3645 58.1282 20.2203L58.249 20.5167C58.0573 20.6819 57.8315 20.7632 57.5716 20.7632C57.2723 20.7632 57.0308 20.6793 56.8417 20.5088C56.6553 20.3409 56.5608 20.118 56.5608 19.8426C56.5608 19.5673 56.6422 19.3496 56.8102 19.1739C56.9756 18.9982 57.1935 18.9116 57.4613 18.9116C57.7291 18.9116 57.9418 18.9982 58.1098 19.1739C58.2779 19.3496 58.3619 19.562 58.3619 19.819C58.3619 19.8899 58.3566 19.9554 58.3435 20.0157H56.9809ZM56.9756 19.6984H57.9575C57.9523 19.583 57.905 19.4781 57.8132 19.3837C57.7213 19.2893 57.6057 19.2394 57.464 19.2394C57.3222 19.2394 57.1962 19.2919 57.1043 19.3942C57.036 19.4729 56.994 19.5725 56.9782 19.6984" fill="#595757"/>
<path d="M58.7058 20.7213V18.9537H59.0839V19.2185C59.1416 19.132 59.2152 19.0638 59.2992 19.0166C59.3989 18.9563 59.5197 18.9248 59.6562 18.9248H59.6851V19.2841H59.6431C59.4751 19.2841 59.3438 19.3339 59.244 19.4362C59.1521 19.5359 59.1049 19.688 59.1049 19.8978V20.7213H58.7058Z" fill="#595757"/>
<path d="M60.7194 20.3856L61.1947 18.9536H61.6121L60.9977 20.7212H60.4464L59.832 18.9536H60.2469L60.7194 20.3856Z" fill="#595757"/>
<path d="M62.3105 18.4553C62.3105 18.5234 62.2842 18.5838 62.2344 18.6336C62.1845 18.686 62.1241 18.7096 62.0532 18.7096C61.9823 18.7096 61.9219 18.6834 61.872 18.6336C61.8222 18.5838 61.7959 18.5234 61.7959 18.4553C61.7959 18.3871 61.8222 18.3241 61.872 18.2743C61.9219 18.2245 61.9823 18.1982 62.0532 18.1982C62.1241 18.1982 62.1845 18.2245 62.2344 18.2743C62.2842 18.3241 62.3105 18.3844 62.3105 18.4553ZM61.8537 18.9536H62.2554V20.7212H61.8537V18.9536Z" fill="#595757"/>
<path d="M62.623 19.84C62.623 19.5856 62.7176 19.368 62.9118 19.1844C63.1035 19.0008 63.3477 18.9116 63.6417 18.9116C63.8728 18.9116 64.0881 18.9851 64.2929 19.1345L64.1616 19.4493C63.9857 19.3129 63.8124 19.2447 63.6417 19.2447C63.4606 19.2447 63.3135 19.3024 63.2006 19.4178C63.0878 19.5332 63.0326 19.6748 63.0326 19.84C63.0326 20.0052 63.0878 20.1469 63.2006 20.2623C63.3135 20.3777 63.4606 20.4327 63.6417 20.4327C63.8124 20.4327 63.9883 20.3645 64.1668 20.2308L64.2981 20.5455C64.1038 20.6924 63.8833 20.7658 63.6417 20.7658C63.3477 20.7658 63.1035 20.6766 62.9118 20.4931C62.7202 20.3121 62.623 20.0944 62.623 19.84Z" fill="#595757"/>
<path d="M64.9545 20.0157C64.9781 20.1233 65.028 20.2124 65.1068 20.2806C65.2197 20.3829 65.3693 20.4354 65.5557 20.4354C65.7526 20.4354 65.9338 20.3645 66.1018 20.2203L66.2226 20.5167C66.0309 20.6819 65.8052 20.7632 65.5452 20.7632C65.2459 20.7632 65.0018 20.6793 64.8153 20.5088C64.6289 20.3409 64.5344 20.118 64.5344 19.8426C64.5344 19.5673 64.6184 19.3496 64.7838 19.1739C64.9492 18.9982 65.1672 18.9116 65.435 18.9116C65.7028 18.9116 65.9154 18.9982 66.0835 19.1739C66.2515 19.3496 66.3355 19.562 66.3355 19.819C66.3355 19.8899 66.3302 19.9554 66.3171 20.0157H64.9519H64.9545ZM64.9466 19.6984H65.9286C65.9233 19.583 65.876 19.4781 65.7841 19.3837C65.6923 19.2893 65.5767 19.2394 65.435 19.2394C65.2932 19.2394 65.1698 19.2919 65.0753 19.3942C65.007 19.4729 64.965 19.5725 64.9466 19.6984Z" fill="#595757"/>
<path d="M20.0324 12.3761C17.7771 10.8471 14.8891 11.4713 13.3742 13.7739C12.1061 15.6963 10.1974 15.935 9.45699 15.935C7.04679 15.935 5.39537 14.2408 4.90703 12.4862C4.9044 12.4679 4.89915 12.4521 4.89652 12.4364C4.89127 12.418 4.88602 12.3971 4.88077 12.3761C4.68911 11.6444 4.64185 11.2956 4.64185 10.5193C4.64185 6.32573 8.94764 1.65749 15.1543 1.65749C21.3609 1.65749 25.1416 6.48833 26.0763 9.17126C26.0605 9.12405 26.0474 9.07684 26.0317 9.02701C24.2306 3.77655 19.2448 0 13.3768 0C5.98873 0 0 5.98217 0 13.3648C0 19.9607 4.76262 25.6071 11.3683 25.6071C16.6377 25.6071 20.1795 22.6567 21.802 18.589C22.6947 16.3651 22.0619 13.7503 20.0403 12.3761" fill="#003863"/>
<path d="M26.1552 9.43112C25.3754 6.81376 21.7129 1.65771 15.1492 1.65771C8.94514 1.65771 4.63672 6.32596 4.63672 10.5195C4.63672 11.2958 4.68398 11.6472 4.87564 12.3763C4.79425 12.059 4.75224 11.739 4.75224 11.4243C4.75224 7.05766 9.12892 4.02855 13.6316 4.02855C19.7227 4.02855 24.6586 8.96168 24.6586 15.0461C24.6586 19.8166 21.9098 23.9446 17.919 25.9273C23.065 24.0679 26.7407 19.1453 26.7407 13.3624C26.7407 11.9908 26.5569 10.787 26.1499 9.4285" fill="#E4032E"/>
<path d="M42.1915 11.0489V14.6576H40.9024V12.174H34.0814V11.0489H37.5575V9.52515H33.4329V8.40005H42.9607V9.52515H38.8361V11.0489H42.1941H42.1915ZM42.1915 4.48975V7.57655H40.9024V5.62796H34.1995V4.48975H42.1941H42.1915Z" fill="#595757"/>
<path d="M47.6946 4.3509L50.5878 12.7773L49.5061 13.2179L47.6946 7.90191L45.904 13.2966L44.8013 12.8586L47.6946 4.34828V4.3509ZM51.1812 4.29321H52.3758V14.5764H51.1812V9.22633H49.8921V8.06714H51.1812V4.29321ZM53.3525 4.28271H54.5969V14.6341H53.3525V4.28271Z" fill="#595757"/>
<path d="M57.1621 6.21829V5.1404H59.5906V4.1543H60.9611V5.1404H63.2742V6.21829H60.7511L63.3661 8.8645L62.5285 9.6539L60.2733 7.30929L58.0416 9.84011L57.1831 9.04021L59.8085 6.21829H57.1594H57.1621ZM65.4323 12.4286C65.4323 12.7774 65.3614 13.1053 65.2197 13.4069C65.0753 13.7137 64.8836 13.9812 64.642 14.2146C64.4005 14.448 64.117 14.6316 63.7888 14.768C63.4606 14.9017 63.1088 14.9699 62.7386 14.9699C62.3684 14.9699 62.0271 14.9017 61.6936 14.768C61.3602 14.6316 61.074 14.448 60.8351 14.2146C60.5936 13.9838 60.4019 13.7137 60.2601 13.4069C60.1157 13.1026 60.0448 12.7774 60.0448 12.4286C60.0448 12.0798 60.1157 11.7546 60.2601 11.4504C60.4019 11.1435 60.5936 10.8734 60.8351 10.64C61.074 10.4092 61.3602 10.2256 61.6936 10.0893C62.0271 9.95026 62.3763 9.88469 62.7386 9.88469C63.1009 9.88469 63.4606 9.95026 63.7888 10.0893C64.117 10.223 64.4031 10.4092 64.642 10.64C64.8836 10.8734 65.0726 11.1435 65.2197 11.4504C65.3614 11.7546 65.4323 12.0824 65.4323 12.4286ZM64.1668 12.4181C64.1668 12.03 64.0251 11.6995 63.7415 11.4215C63.458 11.1435 63.1193 11.0019 62.7255 11.0019C62.3316 11.0019 62.0034 11.1435 61.7251 11.4215C61.4468 11.6995 61.3077 12.0326 61.3077 12.4181C61.3077 12.8037 61.4468 13.1472 61.7251 13.42C62.0034 13.6953 62.3369 13.8317 62.7255 13.8317C63.114 13.8317 63.458 13.6927 63.7415 13.42C64.0251 13.1472 64.1668 12.8141 64.1668 12.4181ZM65.0254 9.7929V7.8207H63.2138V6.71658H65.0254V4.28018H66.3145V9.7929H65.0254Z" fill="#595757"/>
</svg>
