<svg width="122" height="50" viewBox="0 0 122 50" fill="none" xmlns="http://www.w3.org/2000/svg">
<path d="M38.4707 49.9944L56.0214 27.7822V49.9944H38.4707ZM12.0655 0.372461C14.0406 0.372461 15.8578 0.857788 17.5169 1.8228C19.1761 2.78781 20.491 4.10271 21.456 5.76185C22.421 7.42099 22.9063 9.23815 22.9063 11.2133C22.9063 13.1885 22.421 14.9831 21.456 16.6027C20.4684 18.2844 19.1535 19.605 17.5169 20.5756C15.8352 21.5632 14.0181 22.0542 12.0655 22.0542C10.1129 22.0542 8.27314 21.5632 6.614 20.5756C4.97743 19.6106 3.66253 18.2844 2.67494 16.6027C1.70993 14.9436 1.22461 13.149 1.22461 11.2133C1.22461 9.27765 1.70993 7.45485 2.67494 5.79571C3.66253 4.114 4.97743 2.79345 6.614 1.82844C8.23363 0.863431 10.0508 0.378104 12.0655 0.378104M32.7709 49.9944H0L17.1727 28.4424C17.2968 28.2957 17.4097 28.1659 17.5056 28.0474C17.6016 27.9289 17.7314 27.7709 17.9007 27.5621C18.0248 27.4153 18.1433 27.2799 18.2449 27.1501C18.3521 27.026 18.465 26.8792 18.5892 26.7099C18.6512 26.6027 18.781 26.4334 18.9842 26.1907C19.1817 25.9481 19.3341 25.7562 19.4413 25.6095C19.6953 25.2935 19.842 25.1129 19.8815 25.0734C21.9187 22.5734 23.4819 20.5248 24.5767 18.9278C25.5418 17.5226 26.202 16.219 26.5632 15.0226C26.9187 13.8262 27.0993 12.4718 27.0993 10.9594C27.0993 8.8149 26.6366 6.85102 25.7111 5.06772C24.763 3.30135 23.2957 1.67607 21.298 0.18623C23.3578 0.0620768 25.8239 0 28.702 0C32.4831 0 35.3725 0.13544 37.3702 0.411964C39.4695 0.705418 41.2585 1.19074 42.7257 1.8623C46.7156 3.52144 49.921 6.19074 52.3363 9.86456C53.2788 11.2698 54.0801 12.9007 54.7291 14.746C55.3612 16.6591 55.7167 18.3691 55.8014 19.8815C55.8239 19.9436 55.8352 20.0395 55.8352 20.1637C55.8352 20.2878 55.8465 20.4345 55.8691 20.6038C55.8916 20.7901 55.9029 21.044 55.9029 21.36V21.8002L32.7765 50L32.7709 49.9944Z" fill="#D9D9D6"/>
<path d="M62.7651 49.9945L89.7967 0.372624H121.936L95.0902 49.9945H62.7651ZM61.8848 42.7203V0.310547L61.9468 0.372624H85.1692L61.8848 42.7203Z" fill="#D9D9D6"/>
</svg>
